<svg version="1.1" xmlns="http://www.w3.org/2000/svg" xmlns:xlink="http://www.w3.org/1999/xlink" width="2500" height="592" viewBox="0,0,256,60.61459"><defs><linearGradient x1="892.955" y1="176.121" x2="817.705" y2="158.562" gradientUnits="userSpaceOnUse" id="color-1"><stop offset="0.121" stop-color="#009950"></stop><stop offset="0.534" stop-color="#6bb453"></stop><stop offset="0.843" stop-color="#9cc854"></stop><stop offset="1" stop-color="#b1d355"></stop></linearGradient><linearGradient x1="864.635" y1="13.495" x2="864.635" y2="183.324" gradientUnits="userSpaceOnUse" id="color-2"><stop offset="0" stop-color="#06a94e"></stop><stop offset="0.149" stop-color="#5ab450"></stop><stop offset="0.318" stop-color="#81c052"></stop><stop offset="0.479" stop-color="#9bca53"></stop><stop offset="0.626" stop-color="#abd155"></stop><stop offset="0.747" stop-color="#b1d355"></stop></linearGradient><linearGradient x1="728.207" y1="13.495" x2="728.207" y2="183.324" gradientUnits="userSpaceOnUse" id="color-3"><stop offset="0" stop-color="#06a94e"></stop><stop offset="0.149" stop-color="#5ab450"></stop><stop offset="0.318" stop-color="#81c052"></stop><stop offset="0.479" stop-color="#9bca53"></stop><stop offset="0.626" stop-color="#abd155"></stop><stop offset="0.747" stop-color="#b1d355"></stop></linearGradient><linearGradient x1="769.998" y1="92.755" x2="769.998" y2="175.494" gradientUnits="userSpaceOnUse" id="color-4"><stop offset="0.187" stop-color="#009950"></stop><stop offset="0.543" stop-color="#74b753"></stop><stop offset="0.78" stop-color="#b1d355"></stop></linearGradient><linearGradient x1="737.735" y1="207.158" x2="800.219" y2="-28.552" gradientUnits="userSpaceOnUse" id="color-5"><stop offset="0.055" stop-color="#009950"></stop><stop offset="0.125" stop-color="#32a451"></stop><stop offset="0.25" stop-color="#6fb553"></stop><stop offset="0.361" stop-color="#92c454"></stop><stop offset="0.456" stop-color="#a8ce55"></stop><stop offset="0.522" stop-color="#b1d355"></stop></linearGradient><linearGradient x1="783.182" y1="68.197" x2="855.385" y2="-3.077" gradientUnits="userSpaceOnUse" id="color-6"><stop offset="0" stop-color="#5cb249"></stop><stop offset="0.484" stop-color="#88c14e"></stop><stop offset="1" stop-color="#b1d355"></stop></linearGradient></defs><g fill="none" fill-rule="nonzero" stroke="none" stroke-width="1" stroke-linecap="butt" stroke-linejoin="miter" stroke-miterlimit="10" stroke-dasharray="" stroke-dashoffset="0" font-family="none" font-weight="none" font-size="none" text-anchor="none" style="mix-blend-mode: normal"><g transform="translate(0,-0.0029) scale(0.28044,0.28067)"><path d="M252.756,48.188h8.815v107.939h-8.815zM242.968,117.762c0,24.098 -13.153,40.11 -32.888,40.11c-20.024,0 -33.327,-15.854 -33.327,-40.11c0,-24.574 13.154,-40.27 33.475,-40.27c20.022,0 32.74,15.696 32.74,40.27zM186.347,117.918c0,18.551 9.846,32.431 23.59,32.431c13.737,0 23.443,-13.88 23.443,-32.587c0,-18.869 -9.562,-32.752 -23.301,-32.752c-14.324,0 -23.732,13.569 -23.732,32.908zM429.82,117.762c0,24.098 -13.151,40.11 -32.891,40.11c-20.025,0 -33.327,-15.854 -33.327,-40.11c0,-24.574 13.158,-40.27 33.476,-40.27c20.025,0 32.742,15.696 32.742,40.27zM373.196,117.918c0,18.551 9.85,32.431 23.591,32.431c13.737,0 23.444,-13.88 23.444,-32.587c0,-18.869 -9.562,-32.752 -23.302,-32.752c-14.328,0 -23.733,13.569 -23.733,32.908zM170.159,117.762c0,24.098 -13.155,40.11 -32.886,40.11c-20.027,0 -33.329,-15.854 -33.329,-40.11c0,-24.574 13.155,-40.27 33.472,-40.27c20.025,0 32.743,15.696 32.743,40.27zM113.539,117.918c0,18.551 9.845,32.431 23.587,32.431c13.74,0 23.445,-13.88 23.445,-32.587c0,-18.869 -9.563,-32.752 -23.298,-32.752c-14.328,0 -23.734,13.569 -23.734,32.908zM526.972,79.393v3.649c-0.155,3.331 0,6.816 -0.45,10.146c4.954,-9.512 13.818,-14.904 24.189,-14.904c16.971,0 23.061,12.525 23.955,28.538c0.308,3.651 0.459,9.834 0.459,13.475v35.832h-8.793v-35.832c0,-4.437 -0.158,-11.939 -0.443,-15.583c-1.057,-12.217 -7.065,-18.87 -16.825,-18.87c-7.977,0 -15.333,5.229 -19.247,13.475c-1.49,3.016 -2.098,6.025 -2.545,12.529c-0.156,2.377 -0.3,7.187 -0.3,8.449v35.832h-8.745v-107.941h8.745zM622.84,88.379c-5.92,-2.033 -8.718,-2.625 -14.617,-2.861c-8.776,-0.358 -15.05,5.291 -15.05,11.792c0,15.853 35.979,14.109 35.979,38.527c0,12.841 -10.688,21.716 -26.34,21.716c-6.596,0 -12.153,-1.104 -18.745,-3.806l0.629,-8.688c6.59,3.643 11.667,4.991 17.525,4.991c9.959,0 17.271,-6.602 17.271,-14.213c0,-18.394 -35.128,-15.224 -35.128,-38.37c0,-11.887 9.374,-19.731 24.002,-19.499c5.647,0.091 8.299,0.248 15.165,2.626zM320.605,79.109c0,0 10.706,43.563 12.938,53.766l2.681,12.258c0,0 1.667,-7.287 2.999,-12.246c2.76,-10.269 14.981,-53.776 14.981,-53.776h9.453l-22.302,76.943h-10.384c0,0 -11.729,-50.828 -13.103,-57.079c-0.69,-3.138 -1.648,-7.918 -1.648,-7.918c0,0 -0.956,4.78 -1.651,7.918c-1.374,6.251 -13.1,57.079 -13.1,57.079h-10.389l-22.298,-76.944h9.452c0,0 12.224,43.509 14.985,53.776c1.331,4.959 2.995,12.246 2.995,12.246c0,0 1.595,-7.287 2.68,-12.258c2.235,-10.202 12.938,-53.766 12.938,-53.766h8.773zM56.5,67.468c0,0 14.389,52.433 16.814,61.487c1.358,5.061 3.485,13.98 3.485,13.98c0,0 1.88,-8.933 3.14,-14.027c2.228,-8.982 15.693,-61.44 15.693,-61.44h9.155l-22.82,88.638h-10.005c0,0 -16.753,-64.135 -17.557,-67.415c-0.802,-3.279 -2.01,-9.603 -2.01,-9.603c0,0 -1.206,6.322 -2.013,9.603c-0.799,3.28 -17.554,67.415 -17.554,67.415h-10.007l-22.821,-88.638h9.158c0,0 13.464,52.458 15.688,61.44c1.263,5.096 3.142,14.027 3.142,14.027c0,0 2.131,-8.921 3.487,-13.98c2.427,-9.056 16.816,-61.487 16.816,-61.487zM439.315,156.127v-76.883h7.482v17.578c0,0 4.171,-16.354 27.406,-17.557c3.234,-0.169 7.446,-0.069 7.446,-0.069v-19.337l8.735,-3.407v22.764h17.952v7.795h-17.952v46.735c0,11.027 3.446,14.865 10.97,14.865c4.169,0 7.605,-1.546 7.605,-1.546l0.929,7.598c0,0 -4.35,1.424 -8.95,1.424c-2.369,0 -9.375,0.336 -14.171,-4.513c-3.207,-3.242 -5.118,-8.497 -5.118,-18.265c0,-8.925 0.014,-46.612 0.002,-46.612c-3.042,-0.022 -9.587,-0.385 -14.892,1.001c-7.094,1.86 -18.697,9.231 -18.697,27.624v40.806h-8.747z" fill="#ffffff"></path><g><path d="M838.631,182.1c-5.383,0 -10.469,-0.665 -15.261,-1.887c-7.906,10.874 -18.105,20.262 -29.929,26.714c10.446,5.687 22.167,9.059 34.658,9.059c47.897,0 80.505,-49.83 84.366,-92.176c-1.521,5.604 -11.387,58.29 -73.834,58.29z" fill="url(#color-1)"></path><path d="M850.548,49.709c-23.04,0 -34.131,13.373 -34.131,13.373c23.782,2.407 53,19.186 53,53.941c0,33.753 -22.117,49.087 -40.197,54.212c-1.78592,3.09643 -3.7388,6.09352 -5.85,8.978c4.792,1.222 9.878,1.887 15.261,1.887c62.447,0 72.313,-52.686 73.836,-58.29c0.26015,-2.7864 0.38929,-5.58348 0.387,-8.382c-0.001,-47.51 -36.275,-65.719 -62.306,-65.719z" fill="url(#color-2)"></path><path d="M748.263,182.1c13.257,0 24.843,-4.049 34.11,-10.538c-3.176,0.951 -7.079,1.73 -11.01,1.73c-17.63,0 -53.886,-13.053 -53.886,-56.269c0,-34.757 29.219,-51.534 53.001,-53.941c0,0 -11.091,-13.373 -34.13,-13.373c-26.033,0 -62.308,18.209 -62.308,65.719c0,2.755 0.119,5.54 0.386,8.382c1.522,5.651 11.198,58.29 73.837,58.29z" fill="url(#color-3)"></path><path d="M771.364,173.292c3.928,0 7.835,-0.779 11.01,-1.73l0.006,-0.001c4.271,-2.983 8.042,-6.512 11.263,-10.368v-0.003c-2.2,-2.762 -12.413,-16.581 -12.413,-35.07c0,-17.292 9.266,-24.674 12.326,-26.644c-0.00214,-0.00315 -0.00485,-0.00586 -0.008,-0.008c-6.36,-4.741 -13.53,-6.113 -17.606,-6.113c-6.571,0 -24.32,4.502 -28.508,24.77c0,-0.007 0.003,-0.015 0.003,-0.02l-0.012,0.061c-0.15135,0.80642 -0.28571,1.61593 -0.403,2.428c-0.423,3.38 -0.666,7.119 -0.666,11.213c0,16.261 6.92,30.799 12.329,39.709c4.691,1.232 9.083,1.776 12.679,1.776z" fill="url(#color-4)"></path><path d="M793.778,77.305c-28.926,0 -42.674,21.267 -46.346,40.818c4.188,-20.268 21.937,-24.77 28.508,-24.77c4.076,0 11.246,1.372 17.606,6.113c0.004,0.003 0.007,0.003 0.008,0.008c6.936,5.163 12.913,13.903 12.913,27.846c0,11.885 -4.624,24.047 -12.826,33.868v0.003c-10.239,12.291 -26.038,20.907 -45.379,20.907c-62.639,0 -72.314,-52.639 -73.835,-58.29c3.864,42.346 36.465,92.176 84.371,92.176c46.771,0 82.511,-47.214 82.511,-86.752c0.001,-27.417 -15.558,-51.927 -47.531,-51.927z" fill="url(#color-5)"></path><path d="M794.646,61.162c0,0 -9.984,-9.589 -10.68,-22.662c-0.507,-9.515 3.356,-24.072 18.418,-32.146c35.256,-18.867 65.897,8.58 62.347,26.362c0,0 -26.262,-11.938 -50.437,2.349c-17.786,10.504 -19.648,26.097 -19.648,26.097z" fill="url(#color-6)"></path></g></g></g></svg>